<svg width="20" height="20" viewBox="0 0 20 20" fill="none" xmlns="http://www.w3.org/2000/svg">
  <path d="M17 5H3C1.89543 5 1 5.89543 1 7V15C1 16.1046 1.89543 17 3 17H17C18.1046 17 19 16.1046 19 15V7C19 5.89543 18.1046 5 17 5Z" stroke="#065844" stroke-width="1.5" stroke-linecap="round" stroke-linejoin="round"/>
  <path d="M13 17V3C13 2.46957 12.7893 1.96086 12.4142 1.58579C12.0391 1.21071 11.5304 1 11 1H9C8.46957 1 7.96086 1.21071 7.58579 1.58579C7.21071 1.96086 7 2.46957 7 3V17" stroke="#065844" stroke-width="1.5" stroke-linecap="round" stroke-linejoin="round"/>
</svg> 