<svg width="15" height="14" viewBox="0 0 15 14" fill="none" xmlns="http://www.w3.org/2000/svg">
<path d="M7.36816 9.40784C5.85132 9.40784 4.61816 8.17469 4.61816 6.65784V3.47363C4.61816 1.95679 5.85132 0.723633 7.36816 0.723633C8.88501 0.723633 10.1182 1.95679 10.1182 3.47363V6.65784C10.1182 8.17469 8.88501 9.40784 7.36816 9.40784ZM7.36816 1.59205C6.33185 1.59205 5.48659 2.43732 5.48659 3.47363V6.65784C5.48659 7.69416 6.33185 8.53942 7.36816 8.53942C8.40448 8.53942 9.24974 7.69416 9.24974 6.65784V3.47363C9.24974 2.43732 8.40448 1.59205 7.36816 1.59205Z" fill="#065844"/>
<path d="M7.36853 11.4349C4.688 11.4349 2.50537 9.25227 2.50537 6.57174V5.58753C2.50537 5.35016 2.70221 5.15332 2.93958 5.15332C3.17695 5.15332 3.37379 5.35016 3.37379 5.58753V6.57174C3.37379 8.77174 5.16853 10.5665 7.36853 10.5665C9.56853 10.5665 11.3633 8.77174 11.3633 6.57174V5.58753C11.3633 5.35016 11.5601 5.15332 11.7975 5.15332C12.0348 5.15332 12.2317 5.35016 12.2317 5.58753V6.57174C12.2317 9.25227 10.0491 11.4349 7.36853 11.4349Z" fill="#065844"/>
<path d="M8.17291 4.15682C8.12659 4.15682 8.07449 4.15103 8.02238 4.13366C7.59975 3.97734 7.13659 3.97734 6.71396 4.13366C6.48817 4.21471 6.23922 4.09892 6.15817 3.87313C6.07712 3.64734 6.19291 3.3984 6.4187 3.31734C7.03238 3.09734 7.70975 3.09734 8.32343 3.31734C8.54922 3.3984 8.66501 3.64734 8.58396 3.87313C8.51449 4.04682 8.34659 4.15682 8.17291 4.15682Z" fill="#065844"/>
<path d="M7.8317 5.38429C7.79117 5.38429 7.75644 5.3785 7.71591 5.36692C7.48433 5.30324 7.24696 5.30324 7.01538 5.36692C6.78381 5.4306 6.54644 5.29166 6.48275 5.06008C6.41907 4.83429 6.55802 4.59692 6.7896 4.53324C7.16591 4.42903 7.57117 4.42903 7.94749 4.53324C8.17907 4.59692 8.31802 4.83429 8.25433 5.06587C8.20223 5.25692 8.02275 5.38429 7.8317 5.38429Z" fill="#065844"/>
<path d="M7.36829 13.1707C7.13092 13.1707 6.93408 12.9739 6.93408 12.7365V10.9996C6.93408 10.7623 7.13092 10.5654 7.36829 10.5654C7.60566 10.5654 7.8025 10.7623 7.8025 10.9996V12.7365C7.8025 12.9739 7.60566 13.1707 7.36829 13.1707Z" fill="#065844"/>
</svg>
